BBC The Weather Complete: 1.Rain 2.Snow 3.Winds 832x468  x264 aac mp4 w/subtitles [aularon]

- - -
Synopsis
- - -
Documentary series about the weather.
URL: http://www.bbc.co.uk/programmes/b00k0b1s


 /=-_-=-_-=-_-=-_-=-_-=-_-=-_-=-_-=-_-=-_-=-_-=-_-=-_-=-_-=-_-=-_-=-_-=-_-=-_-=\
|                               Episode 1. Rain                                 |
 \=-_-=-_-=-_-=-_-=-_-=-_-=-_-=-_-=-_-=-_-=-_-=-_-=-_-=-_-=-_-=-_-=-_-=-_-=-_-=/
The programme uncovers the true shape of a raindrop, shows how and why rain falls, and tells remarkable stories of how we have adapted or succumbed to this elemental force of nature, such as James Glaisher's seven-mile hot-air balloon ascent in 1862, and how Charles Macintosh invented the waterproof coat.
The Victorians believed that they could master the rain and push it aside, but today climate change threatens us with rain that is wilder and more unpredictable than ever.
URL: http://www.bbc.co.uk/programmes/b00jz8gj

General
Complete name                    : BBC.The.Weather.S01/The.Weather.E01.Rain/The_Weather_-_1._Rain_b00jz8gj_default.mp4
Format                           : MPEG-4
Format profile                   : Base Media
Codec ID                         : isom
File size                        : 613 MiB
Duration                         : 57mn 5s
Overall bit rate                 : 1 502 Kbps
Movie name                       : The Weather: Rain
Album                            : The Weather
Track name/Position              : 1
Track name/Total                 : 0
Performer                        : The Weather
Genre                            : Factual,Science & Nature
Recorded date                    : 2009-04-13T21:00:00+01:00
Tagged date                      : UTC 2011-08-30 10:04:15
Writing application              : Lavf53.10.0
Cover                            : Yes
Comment                          : Recorded using get_iplayer, by Aularon.
rtng                             : 2
stik                             : 1
desc                             : Documentary series about the weather. A look at rain, including the true shape of a raindrop, how and why rain falls, and stories of adaptation to this elemental force of nature.
tvnn                             : BBC Four
tvsh                             : The Weather
tven                             : b00jz8gj
catg                             : Factual,Science & Nature
tves                             : 1

Video
ID                               : 1
Format                           : AVC
Format/Info                      : Advanced Video Codec
Format profile                   : Main@L3.0
Format settings, CABAC           : Yes
Format settings, ReFrames        : 4 frames
Codec ID                         : avc1
Codec ID/Info                    : Advanced Video Coding
Duration                         : 57mn 5s
Bit rate mode                    : Constant
Bit rate                         : 1 404 Kbps
Width                            : 832 pixels
Height                           : 468 pixels
Display aspect ratio             : 16:9
Frame rate mode                  : Constant
Frame rate                       : 25.000 fps
Standard                         : PAL
Color space                      : YUV
Chroma subsampling               : 4:2:0
Bit depth                        : 8 bits
Scan type                        : Progressive
Bits/(Pixel*Frame)               : 0.144
Stream size                      : 572 MiB (93%)

Audio
ID                               : 2
Format                           : AAC
Format/Info                      : Advanced Audio Codec
Format profile                   : HE-AAC / LC
Codec ID                         : 40
Duration                         : 57mn 5s
Bit rate mode                    : Constant
Bit rate                         : 96.0 Kbps
Channel(s)                       : 2 channels
Channel positions                : Front: L R
Sampling rate                    : 48.0 KHz / 24.0 KHz
Compression mode                 : Lossy
Stream size                      : 38.7 MiB (6%)



 /=-_-=-_-=-_-=-_-=-_-=-_-=-_-=-_-=-_-=-_-=-_-=-_-=-_-=-_-=-_-=-_-=-_-=-_-=-_-=\
|                               Episode 2. Snow                                 |
 \=-_-=-_-=-_-=-_-=-_-=-_-=-_-=-_-=-_-=-_-=-_-=-_-=-_-=-_-=-_-=-_-=-_-=-_-=-_-=/

This episode looks at snow, that most fleeting and beautiful of elements which endlessly fascinates us.
Using rare footage, we journey into the microscopically small world of the snow crystal, finding out how a snowflake forms and why it is always six-sided.
The science of snow tests British Rail's claim that the snow that crippled their rolling stock in 1991 really was the 'wrong type of snow', and explains how, thanks to a scientific discovery, a British company became the world's leading producer of snow.
URL: http://www.bbc.co.uk/programmes/b00jw9z6

General
Complete name                    : BBC.The.Weather.S01/The.Weather.E02.Snow/The_Weather_-_2._Snow_b00jw9z6_default.mp4
Format                           : MPEG-4
Format profile                   : Base Media
Codec ID                         : isom
File size                        : 635 MiB
Duration                         : 59mn 5s
Overall bit rate                 : 1 502 Kbps
Movie name                       : The Weather: Snow
Album                            : The Weather
Track name/Position              : 2
Track name/Total                 : 0
Performer                        : The Weather
Genre                            : Factual,Science & Nature
Recorded date                    : 2009-04-20T21:00:00+01:00
Tagged date                      : UTC 2011-08-30 10:05:06
Writing application              : Lavf53.10.0
Cover                            : Yes
Comment                          : Recorded using get_iplayer, by Aularon.
rtng                             : 2
stik                             : 1
desc                             : A journey into the world of the snow crystal, as science explains a notorious episode in British Rail's history and why a British company is the world's leading snow producer.
tvnn                             : BBC Four
tvsh                             : The Weather
tven                             : b00jw9z6
catg                             : Factual,Science & Nature
tves                             : 2

Video
ID                               : 1
Format                           : AVC
Format/Info                      : Advanced Video Codec
Format profile                   : Main@L3.0
Format settings, CABAC           : Yes
Format settings, ReFrames        : 4 frames
Codec ID                         : avc1
Codec ID/Info                    : Advanced Video Coding
Duration                         : 59mn 5s
Bit rate mode                    : Constant
Bit rate                         : 1 404 Kbps
Width                            : 832 pixels
Height                           : 468 pixels
Display aspect ratio             : 16:9
Frame rate mode                  : Constant
Frame rate                       : 25.000 fps
Standard                         : PAL
Color space                      : YUV
Chroma subsampling               : 4:2:0
Bit depth                        : 8 bits
Scan type                        : Progressive
Bits/(Pixel*Frame)               : 0.144
Stream size                      : 592 MiB (93%)

Audio
ID                               : 2
Format                           : AAC
Format/Info                      : Advanced Audio Codec
Format profile                   : HE-AAC / LC
Codec ID                         : 40
Duration                         : 59mn 5s
Bit rate mode                    : Constant
Bit rate                         : 96.0 Kbps
Channel(s)                       : 2 channels
Channel positions                : Front: L R
Sampling rate                    : 48.0 KHz / 24.0 KHz
Compression mode                 : Lossy
Stream size                      : 40.0 MiB (6%)


 /=-_-=-_-=-_-=-_-=-_-=-_-=-_-=-_-=-_-=-_-=-_-=-_-=-_-=-_-=-_-=-_-=-_-=-_-=-_-=\
|                               Episode 3. Winds                                |
 \=-_-=-_-=-_-=-_-=-_-=-_-=-_-=-_-=-_-=-_-=-_-=-_-=-_-=-_-=-_-=-_-=-_-=-_-=-_-=/
This episode looks at wind - a phenomenon caused by the interaction of temperature, pressure and the earth's rotation, which took scientists over a thousand years to fully explain.
We witness some remarkable wind-related stories, such as the tornado that flung Dorothy Allwright and her caravan into the air, and how Scottish engineer James Blyth invented the first electricity-producing wind turbine in 1887.
Once we looked to the gods to explain the wind, until science unlocked its mysteries. Today, we may have come to understand the wind, but we have also realised that we will never master it, and that this elemental force cannot be ignored.
URL: http://www.bbc.co.uk/programmes/b00jzjhx

General
Complete name                    : BBC.The.Weather.S01/The.Weather.E03.Winds/The_Weather_-_3._Winds_b00jzjhx_default.mp4
Format                           : MPEG-4
Format profile                   : Base Media
Codec ID                         : isom
File size                        : 630 MiB
Duration                         : 58mn 38s
Overall bit rate                 : 1 502 Kbps
Movie name                       : The Weather: Winds
Album                            : The Weather
Track name/Position              : 3
Track name/Total                 : 0
Performer                        : The Weather
Genre                            : Factual,Science & Nature
Recorded date                    : 2009-04-27T21:00:00+01:00
Tagged date                      : UTC 2011-08-30 10:05:42
Writing application              : Lavf53.10.0
Cover                            : Yes
Comment                          : Recorded using get_iplayer, by Aularon.
rtng                             : 2
stik                             : 1
desc                             : Documentary series about the weather looks at wind, caused by the interaction of temperature, pressure and the earth's rotation, which took scientists over 1,000 years to explain.
tvnn                             : BBC Four
tvsh                             : The Weather
tven                             : b00jzjhx
catg                             : Factual,Science & Nature
tves                             : 3

Video
ID                               : 1
Format                           : AVC
Format/Info                      : Advanced Video Codec
Format profile                   : Main@L3.0
Format settings, CABAC           : Yes
Format settings, ReFrames        : 4 frames
Codec ID                         : avc1
Codec ID/Info                    : Advanced Video Coding
Duration                         : 58mn 38s
Bit rate mode                    : Constant
Bit rate                         : 1 404 Kbps
Width                            : 832 pixels
Height                           : 468 pixels
Display aspect ratio             : 16:9
Frame rate mode                  : Constant
Frame rate                       : 25.000 fps
Standard                         : PAL
Color space                      : YUV
Chroma subsampling               : 4:2:0
Bit depth                        : 8 bits
Scan type                        : Progressive
Bits/(Pixel*Frame)               : 0.144
Stream size                      : 588 MiB (93%)

Audio
ID                               : 2
Format                           : AAC
Format/Info                      : Advanced Audio Codec
Format profile                   : HE-AAC / LC
Codec ID                         : 40
Duration                         : 58mn 38s
Bit rate mode                    : Constant
Bit rate                         : 96.0 Kbps
Channel(s)                       : 2 channels
Channel positions                : Front: L R
Sampling rate                    : 48.0 KHz / 24.0 KHz
Compression mode                 : Lossy
Stream size                      : 39.7 MiB (6%)


                   ______                                     
                  (____  \                                    
                   ____)  )_____  ____ _____ _   _  ___ _____ 
                  |  __  (| ___ |/ ___|____ | | | |/___) ___ |
             _ _ _| |__)  ) ____( (___/ ___ | |_| |___ | ____|
            (_|_|_)______/|_____)\____)_____|____/(___/|_____)
                                                              
                   ______ _                 _             
                  / _____) |               (_)            
                 ( (____ | |__  _____  ____ _ ____   ____ 
                  \____ \|  _ \(____ |/ ___) |  _ \ / _  |
                  _____) ) | | / ___ | |   | | | | ( (_| |
                 (______/|_| |_\_____|_|   |_|_| |_|\___ |
                                                   (_____|
                                  _      
                                 (_)     
                                  _  ___ 
                                 | |/___)
                                 | |___ |
                                 |_(___/ 

                    _______             _               
                   (_______)           (_)              
                    _       _____  ____ _ ____   ____   
                   | |     (____ |/ ___) |  _ \ / _  |  
                   | |_____/ ___ | |   | | | | ( (_| |_ 
                    \______)_____|_|   |_|_| |_|\___ (_)
                                               (_____|  

                                    ;)

